<?xml version="1.0" encoding="UTF-8"?>
<svg version="1.1" xmlns="http://www.w3.org/2000/svg" width="693" height="559">
<path d="M0 0 C0.66 0 1.32 0 2 0 C35.0747817 57.04586249 62.43822183 122.44709586 44.99853516 189.39086914 C42.27913582 199.09680094 38.6497688 208.07201927 34 217 C33.27683594 218.45599609 33.27683594 218.45599609 32.5390625 219.94140625 C16.22851429 251.61631066 -14.2767569 273.79417111 -47.62255859 284.69555664 C-119.23188922 306.4706973 -199.341691 285.62226309 -263.578125 251.55078125 C-288.44570417 238.05930048 -312.16613065 221.96010443 -333.47265625 203.31689453 C-334.98030862 202.01697815 -336.52136254 200.75613088 -338.0625 199.49609375 C-346.31793767 192.72194914 -353.89320328 185.29515278 -361.4375 177.75 C-361.95800934 177.23039703 -362.47851868 176.71079407 -363.01480103 176.17544556 C-368.8911619 170.29792543 -374.64158731 164.36013375 -380 158 C-380.53971436 157.36707031 -381.07942871 156.73414063 -381.63549805 156.08203125 C-395.01949683 140.30499799 -407.00316133 123.73560206 -417.75048828 106.05322266 C-418.57131098 104.70443038 -419.40786802 103.36506493 -420.26123047 102.03662109 C-423.05317241 97.54108087 -423.05317241 97.54108087 -422.79882812 94.95288086 C-421.83068198 92.58607126 -420.95969078 91.91591948 -418.81640625 90.5546875 C-418.14544922 90.12269043 -417.47449219 89.69069336 -416.78320312 89.24560547 C-415.68395508 88.56715576 -415.68395508 88.56715576 -414.5625 87.875 C-413.80259766 87.39562988 -413.04269531 86.91625977 -412.25976562 86.42236328 C-404.72131025 81.72087788 -396.99260547 77.38164367 -389.17041016 73.17333984 C-387.1394914 72.07541009 -385.12151536 70.95696779 -383.10546875 69.83203125 C-361.38706422 57.85314037 -338.22915441 48.58103981 -315 40 C-312.77173298 42.06788273 -311.28848151 44.01967202 -309.87109375 46.703125 C-309.48107178 47.42870605 -309.0910498 48.15428711 -308.68920898 48.90185547 C-308.27614502 49.67674316 -307.86308105 50.45163086 -307.4375 51.25 C-290.02036374 83.21942177 -265.02656026 113.85439544 -236 136 C-234.83567008 136.91632697 -233.67162636 137.83301768 -232.5078125 138.75 C-221.87007343 147.02834835 -210.62163412 154.18645645 -199 161 C-197.915979 161.63615234 -197.915979 161.63615234 -196.81005859 162.28515625 C-153.07163043 187.55856504 -96.64712909 201.0436118 -47 188 C-30.34144352 183.12885246 -15.9983202 175.6132533 -3 164 C-2.37867188 163.47277344 -1.75734375 162.94554687 -1.1171875 162.40234375 C14.49332737 148.20766627 23.32191108 125.23476265 24.90625 104.51953125 C24.9371875 103.68808594 24.968125 102.85664063 25 102 C25.0515625 100.74574219 25.103125 99.49148438 25.15625 98.19921875 C26.02253988 66.45434816 16.31785899 35.40199965 2.43798828 7.15087891 C0 2.18278692 0 2.18278692 0 0 Z " fill="#045FAE" transform="translate(578,230)"/>
<path d="M0 0 C0 0.66 0 1.32 0 2 C-0.61480225 1.87471924 -1.22960449 1.74943848 -1.86303711 1.62036133 C-33.70071546 -4.81252429 -65.64590468 -9.23889312 -98 -12 C-98.71748413 -12.06165344 -99.43496826 -12.12330688 -100.17419434 -12.18682861 C-143.46255739 -15.84402289 -187.71247939 -15.53751527 -231 -12 C-231.7852002 -11.93683594 -232.57040039 -11.87367188 -233.37939453 -11.80859375 C-326.88813943 -4.22529661 -418.06748683 16.63320209 -569.14453125 97.921875 C-570.00691406 98.57913574 -570.86929688 99.23639648 -571.7578125 99.91357422 C-573.42631701 101.19461065 -575.08203235 102.49252788 -576.72265625 103.80908203 C-577.4703125 104.38513184 -578.21796875 104.96118164 -578.98828125 105.5546875 C-579.64352783 106.07530762 -580.29877441 106.59592773 -580.97387695 107.13232422 C-583 108 -583 108 -585.45361328 107.33276367 C-587.96391253 106.01888797 -590.36338271 104.64224858 -592.75390625 103.12109375 C-594.13690918 102.24735107 -594.13690918 102.24735107 -595.54785156 101.35595703 C-596.54268555 100.72286621 -597.53751953 100.08977539 -598.5625 99.4375 C-600.73471416 98.06748247 -602.90793156 96.69905463 -605.08203125 95.33203125 C-605.64654999 94.97695496 -606.21106873 94.62187866 -606.79269409 94.25604248 C-613.07213228 90.31384299 -619.40757619 86.46478981 -625.75 82.625 C-626.33117584 82.27285431 -626.91235168 81.92070862 -627.51113892 81.55789185 C-631.67272559 79.03633297 -635.83610445 76.51774387 -640 74 C-648.76809295 68.69827904 -657.53067048 63.38784519 -666.27716064 58.05053711 C-668.03141101 56.98084649 -669.78689609 55.91320265 -671.54248047 54.84570312 C-674.93112901 52.78343151 -678.30981248 50.70517981 -681.6875 48.625 C-683.23002441 47.68793213 -683.23002441 47.68793213 -684.80371094 46.73193359 C-686.2060498 45.8630249 -686.2060498 45.8630249 -687.63671875 44.9765625 C-688.45873779 44.47205566 -689.28075684 43.96754883 -690.12768555 43.44775391 C-692 42 -692 42 -693 39 C-688.51238908 36.72688504 -684.01350013 34.47776378 -679.50585938 32.24462891 C-677.85145952 31.42290926 -676.19906458 30.59713906 -674.54882812 29.76708984 C-600.2076616 -7.53406924 -517.43389055 -27.4786527 -342.625 -45.5625 C-341.89844208 -45.58334656 -341.17188416 -45.60419312 -340.42330933 -45.62567139 C-250.76800865 -48.14802103 -159.98010577 -40.02383059 0 0 Z " fill="#BDBEC0" transform="translate(693,230)"/>
<path d="M0 0 C0.85899902 0.38768555 1.71799805 0.77537109 2.60302734 1.17480469 C40.79798243 18.50840073 75.54096784 42.50953619 106.48828125 70.734375 C107.90278397 72.01028726 109.32383118 73.279296 110.76635742 74.5234375 C115.94353632 78.98887377 120.85160696 83.66842858 125.6875 88.5 C126.42033203 89.22058594 127.15316406 89.94117188 127.90820312 90.68359375 C132.10941438 94.87344014 135.70612994 99.0624433 139 104 C132.95364277 103.49965339 126.99618485 102.72137763 121.01171875 101.73046875 C120.27808105 101.6090451 119.54444336 101.48762146 118.78857422 101.36251831 C117.23279084 101.10461863 115.67702556 100.84660973 114.12127686 100.58850098 C84.92808414 95.77848778 55.5459649 92.619853 26 91 C25.23391418 90.95663513 24.46782837 90.91327026 23.67852783 90.86859131 C13.08468304 90.28082421 2.53260278 89.94569969 -8.078125 90 C-11.11572967 89.99955716 -14.15331662 89.99609234 -17.19091797 89.99169922 C-19.25187844 89.99729161 -21.31284468 90.01744547 -23.37353516 90.05126953 C-42.84049538 90.3411835 -42.84049538 90.3411835 -48.984375 84.7734375 C-50.35153336 83.20681154 -51.69364981 81.61767984 -53 80 C-54.80291423 78.40952293 -54.80291423 78.40952293 -56.625 77.1015625 C-57.17639648 76.69091553 -57.72779297 76.28026855 -58.29589844 75.85717773 C-58.85825195 75.45055908 -59.42060547 75.04394043 -60 74.625 C-60.62680664 74.1700415 -61.25361328 73.71508301 -61.89941406 73.24633789 C-69.65403161 67.70800449 -77.74808957 62.75722985 -86 58 C-86.73669922 57.57332031 -87.47339844 57.14664063 -88.23242188 56.70703125 C-127.77059285 34.10385523 -177.92763523 20.79323408 -222.90234375 33.03125 C-244.95871352 39.76879949 -262.9305042 52.70985948 -274.1875 73.125 C-283.06341268 90.0944111 -284.95236133 108.21101923 -287 127 C-287.33 127 -287.66 127 -288 127 C-288.82739249 83.3780292 -279.01942991 42.25450675 -248 10 C-183.34765651 -53.7162378 -73.79735974 -33.6202134 0 0 Z " fill="#D1AA62" transform="translate(406,82)"/>
</svg>
