<?xml version="1.0" encoding="UTF-8"?>
<svg version="1.1" xmlns="http://www.w3.org/2000/svg" width="716" height="310">
<path d="M0 0 C1.265625 1.5234375 1.265625 1.5234375 2.25 3.375 C2.58515625 3.98085937 2.9203125 4.58671875 3.265625 5.2109375 C4 7 4 7 4 10 C4.66 10 5.32 10 6 10 C7.04747054 11.63724868 8.03543598 13.3125777 9 15 C10.96278613 17.83061558 12.94228755 20.64651331 14.94726562 23.44726562 C18 27.78325123 18 27.78325123 18 30 C18.66 30 19.32 30 20 30 C21.32401922 31.53913447 22.58269257 33.13459432 23.8125 34.75 C33.83056588 47.20877301 47.46896303 60.08121554 62 67 C62 67.66 62 68.32 62 69 C62.78375 69.144375 63.5675 69.28875 64.375 69.4375 C67 70 67 70 69 71 C69 71.66 69 72.32 69 73 C69.86496094 73.10957031 70.72992188 73.21914062 71.62109375 73.33203125 C75.1350842 74.02670451 77.82916742 75.16098239 81.0625 76.6875 C87.21985756 79.47146619 93.50248021 81.47323856 100 83.3125 C100.895979 83.56668701 101.79195801 83.82087402 102.71508789 84.08276367 C123.64392254 89.86824188 144.90951839 88.07580089 164.04296875 77.7109375 C165.01878906 77.14632812 165.99460937 76.58171875 167 76 C167.71800781 75.60039062 168.43601562 75.20078125 169.17578125 74.7890625 C178.59775505 68.89771746 184.26192944 56.75674932 186.9375 46.35546875 C187.73308835 42.58024905 188.40443811 38.81159609 189 35 C189.15597656 34.05125 189.31195313 33.1025 189.47265625 32.125 C190.33705849 25.44823785 189.55075537 19.25093753 188.546875 12.6171875 C187.8625478 8.09085188 187.40755481 3.55817878 187 -1 C187.99 -1 188.98 -1 190 -1 C193.78101359 7.09594552 197.27682055 15.1695911 199.8125 23.75 C200.00674561 24.39702881 200.20099121 25.04405762 200.40112305 25.71069336 C207.74584127 51.6220335 207.20765472 79.11667215 194.37109375 103.03515625 C182.53598012 122.55897479 164.09989064 136.42100539 142 142 C136.04295844 143.26580193 130.07344477 143.71754058 124 144 C123.03416992 144.04914551 122.06833984 144.09829102 121.07324219 144.14892578 C89.32120781 145.53876224 59.80548028 137.11659987 32 122 C31.04738281 121.51144531 30.09476562 121.02289063 29.11328125 120.51953125 C16.75495826 114.07877022 5.60356358 105.99378165 -5 97 C-5.92554688 96.29617187 -6.85109375 95.59234375 -7.8046875 94.8671875 C-8.52914062 94.25101562 -9.25359375 93.63484375 -10 93 C-10 92.34 -10 91.68 -10 91 C-10.57129639 90.7532251 -11.14259277 90.5064502 -11.73120117 90.25219727 C-14.37042525 88.7955546 -16.16607428 87.09295848 -18.30078125 84.96484375 C-19.11353516 84.15466797 -19.92628906 83.34449219 -20.76367188 82.50976562 C-21.60478516 81.66091797 -22.44589844 80.81207031 -23.3125 79.9375 C-24.55676758 78.70483398 -24.55676758 78.70483398 -25.82617188 77.44726562 C-40 63.22868982 -40 63.22868982 -40 58 C-41.485 57.505 -41.485 57.505 -43 57 C-44.578125 55.03808594 -44.578125 55.03808594 -46.25 52.484375 C-46.8584375 51.56269531 -47.466875 50.64101562 -48.09375 49.69140625 C-48.7228125 48.72074219 -49.351875 47.75007813 -50 46.75 C-50.6290625 45.79480469 -51.258125 44.83960938 -51.90625 43.85546875 C-60 31.52621822 -60 31.52621822 -60 29 C-58.69335937 27.81420898 -58.69335937 27.81420898 -56.84375 26.49609375 C-56.15974121 26.00729736 -55.47573242 25.51850098 -54.77099609 25.01489258 C-54.02156738 24.49435303 -53.27213867 23.97381348 -52.5 23.4375 C-51.33911865 22.63058716 -51.33911865 22.63058716 -50.15478516 21.80737305 C-38.8532305 14.05928134 -27.49094222 7.96402596 -14.75 2.875 C-13.74888184 2.47192627 -12.74776367 2.06885254 -11.71630859 1.65356445 C-10.77352051 1.29093506 -9.83073242 0.92830566 -8.859375 0.5546875 C-7.59818848 0.06718018 -7.59818848 0.06718018 -6.31152344 -0.43017578 C-3.75435217 -1.06055577 -2.43570544 -0.94989832 0 0 Z " fill="#05519F" transform="translate(155,141)"/>
<path d="M0 0 C1.30475281 0.00095673 2.60950562 0.00191345 3.95379639 0.00289917 C7.72189147 0.00932452 11.48977519 0.02541214 15.2578125 0.046875 C16.38266052 0.05125076 17.50750854 0.05562653 18.66644287 0.06013489 C24.39307889 0.11109834 30.00939792 0.35993459 35.69772339 1.03839111 C37.92101998 1.25447267 40.07993179 1.28146727 42.3125 1.25 C45.875 1.25 45.875 1.25 48.875 2.25 C51.18182622 2.39795544 53.49106473 2.50910927 55.80078125 2.6015625 C64.81721633 3.07002788 73.5849374 4.5370626 82.45776367 6.15136719 C85.06853825 6.62609797 87.68139764 7.08754757 90.29492188 7.546875 C99.55710895 9.19043632 108.73817666 10.99981701 117.875 13.25 C117.875 14.57 117.875 15.89 117.875 17.25 C117.18704346 17.18071289 116.49908691 17.11142578 115.7902832 17.04003906 C103.82219946 16.00629388 91.84396328 16.02845143 79.83911133 16.00976562 C76.1093055 16.00012103 72.3800664 15.96904685 68.65039062 15.9375 C54.57690068 15.87740814 40.94076449 16.6411637 27.0012207 18.60253906 C23.88220707 19.0381287 20.89207853 19.32480851 17.74291992 19.28027344 C16.79650635 19.2702832 15.85009277 19.26029297 14.875 19.25 C14.545 19.58 14.215 19.91 13.875 20.25 C12.17392855 20.54870905 10.46303215 20.79173687 8.75 21.01171875 C-13.46145194 23.99817398 -34.65193881 28.94496357 -56.01953125 35.6640625 C-60.15760584 36.964752 -64.30936149 38.13185928 -68.5 39.25 C-76.6550863 41.54762407 -84.3692396 44.87410429 -92.125 48.25 C-93.59066406 48.88421875 -93.59066406 48.88421875 -95.0859375 49.53125 C-101.97371825 52.59248589 -108.69693348 55.9902643 -115.42578125 59.3828125 C-116.36091553 59.85315918 -116.36091553 59.85315918 -117.31494141 60.33300781 C-119.04250138 61.20820545 -120.76172472 62.09980119 -122.48046875 62.9921875 C-125.125 64.25 -125.125 64.25 -127.125 64.25 C-127.125 64.91 -127.125 65.57 -127.125 66.25 C-127.723125 66.353125 -128.32125 66.45625 -128.9375 66.5625 C-131.20610966 67.09018987 -131.20610966 67.09018987 -132.6875 68.8125 C-133.161875 69.286875 -133.63625 69.76125 -134.125 70.25 C-135.115 70.25 -136.105 70.25 -137.125 70.25 C-137.125 70.91 -137.125 71.57 -137.125 72.25 C-138.775 72.58 -140.425 72.91 -142.125 73.25 C-142.125 73.91 -142.125 74.57 -142.125 75.25 C-143.115 75.25 -144.105 75.25 -145.125 75.25 C-145.125 75.91 -145.125 76.57 -145.125 77.25 C-146.115 77.25 -147.105 77.25 -148.125 77.25 C-148.125 77.91 -148.125 78.57 -148.125 79.25 C-150.79166667 80.58333333 -153.45833333 81.91666667 -156.125 83.25 C-157.15367187 83.84167969 -157.15367187 83.84167969 -158.203125 84.4453125 C-160.125 85.25 -160.125 85.25 -163.125 84.25 C-163.125 83.59 -163.125 82.93 -163.125 82.25 C-164.115 82.25 -165.105 82.25 -166.125 82.25 C-166.125 81.59 -166.125 80.93 -166.125 80.25 C-166.86234375 79.97671875 -167.5996875 79.7034375 -168.359375 79.421875 C-170.96079226 78.31957955 -173.05540453 77.09794354 -175.375 75.5 C-176.1484375 74.9740625 -176.921875 74.448125 -177.71875 73.90625 C-179.32291667 72.80208333 -180.92708333 71.69791667 -182.53125 70.59375 C-183.3046875 70.0678125 -184.078125 69.541875 -184.875 69 C-185.57109375 68.52046875 -186.2671875 68.0409375 -186.984375 67.546875 C-189.2887265 66.15080803 -191.60234289 65.18497082 -194.125 64.25 C-194.125 63.59 -194.125 62.93 -194.125 62.25 C-195.775 61.92 -197.425 61.59 -199.125 61.25 C-199.62 59.765 -199.62 59.765 -200.125 58.25 C-200.90875 58.146875 -201.6925 58.04375 -202.5 57.9375 C-205.125 57.25 -205.125 57.25 -207.125 54.25 C-209.18425139 53.52617533 -209.18425139 53.52617533 -211.125 53.25 C-211.125 52.59 -211.125 51.93 -211.125 51.25 C-212.115 51.25 -213.105 51.25 -214.125 51.25 C-213.90063477 48.90844727 -213.90063477 48.90844727 -213.125 46.25 C-211.21069336 44.82788086 -211.21069336 44.82788086 -208.71484375 43.71484375 C-207.80669922 43.29783203 -206.89855469 42.88082031 -205.96289062 42.45117188 C-205.00576172 42.03416016 -204.04863281 41.61714844 -203.0625 41.1875 C-201.19635759 40.3430156 -199.33046846 39.49797125 -197.46484375 38.65234375 C-196.5521875 38.24636963 -195.63953125 37.84039551 -194.69921875 37.42211914 C-192.44945244 36.39773294 -190.25390771 35.31453918 -188.05859375 34.1796875 C-183.58313895 31.91504731 -178.95960471 30.15204265 -174.25 28.4375 C-173.31615479 28.09638184 -172.38230957 27.75526367 -171.42016602 27.40380859 C-160.7108241 23.59670751 -149.74627709 20.7599097 -138.73022461 17.99267578 C-136.12942226 17.30599339 -136.12942226 17.30599339 -133.74975586 16.26098633 C-130.47620516 15.00010144 -127.15533672 14.31064105 -123.7265625 13.62890625 C-122.65853897 13.41076515 -122.65853897 13.41076515 -121.56893921 13.18821716 C-119.29682648 12.7252485 -117.02346261 12.26878844 -114.75 11.8125 C-113.26163238 11.51019052 -111.7733503 11.20745962 -110.28515625 10.90429688 C-107.33734473 10.3045799 -104.38857303 9.70995471 -101.43896484 9.11914062 C-98.60856877 8.55161396 -95.78115064 7.97186186 -92.95556641 7.38085938 C-86.71354436 6.08418239 -80.62782406 4.90485833 -74.25 4.625 C-70.37024224 4.78372536 -70.37024224 4.78372536 -67.125 3.25 C-62.36364227 2.50390096 -57.54914972 2.11696043 -52.75 1.6875 C-51.99189026 1.61930054 -51.23378052 1.55110107 -50.45269775 1.48083496 C-33.65238794 0.03391006 -16.8526738 -0.02569832 0 0 Z " fill="#BCBCBC" transform="translate(227.125,89.75)"/>
<path d="M0 0 C13.94649964 0.11420324 27.7910963 1.52769584 40.99243164 6.25317383 C41.67305664 6.46586914 42.35368164 6.67856445 43.05493164 6.89770508 C49.28614644 8.85641414 55.31728551 11.32941991 61.36352539 13.78833008 C63.4510079 14.63096295 65.54440213 15.45985881 67.65258789 16.24926758 C86.03819082 23.15537886 103.0521423 34.65645928 117.99243164 47.25317383 C119.07960715 48.13506899 120.16824579 49.0151624 121.25805664 49.89379883 C122.37817988 50.80484965 123.49797557 51.71630335 124.61743164 52.62817383 C125.64094727 53.4609082 126.66446289 54.29364258 127.71899414 55.15161133 C128.46922852 55.84512695 129.21946289 56.53864258 129.99243164 57.25317383 C129.99243164 57.91317383 129.99243164 58.57317383 129.99243164 59.25317383 C130.98243164 59.58317383 131.97243164 59.91317383 132.99243164 60.25317383 C132.99243164 60.91317383 132.99243164 61.57317383 132.99243164 62.25317383 C133.56864258 62.50325195 134.14485352 62.75333008 134.73852539 63.01098633 C137.29844624 64.42182659 139.01231641 66.04226618 141.05493164 68.12817383 C141.7265332 68.8062207 142.39813477 69.48426758 143.09008789 70.18286133 C147.99243164 75.51806089 147.99243164 75.51806089 147.99243164 78.25317383 C142.42461902 77.89594691 137.2019892 77.13351898 131.80493164 75.69067383 C127.3386317 74.50350249 123.59341268 73.93947058 118.99243164 74.25317383 C118.99243164 73.59317383 118.99243164 72.93317383 118.99243164 72.25317383 C115.52743164 72.74817383 115.52743164 72.74817383 111.99243164 73.25317383 C111.99243164 72.59317383 111.99243164 71.93317383 111.99243164 71.25317383 C107.53743164 71.74817383 107.53743164 71.74817383 102.99243164 72.25317383 C102.99243164 71.59317383 102.99243164 70.93317383 102.99243164 70.25317383 C101.26379883 70.51420898 101.26379883 70.51420898 99.50024414 70.78051758 C95.24147169 71.31029467 91.13555245 71.15538837 86.86743164 70.81567383 C78.73777026 70.24776447 70.66398871 70.19505046 62.51733398 70.37841797 C53.24130247 70.50009037 47.5335209 68.37146029 40.36743164 62.62817383 C17.06759469 44.6155558 -11.78903615 31.38731063 -42.00756836 34.25317383 C-51.56125172 36.01611871 -59.25470081 39.44467623 -67.00756836 45.25317383 C-67.73717773 45.79973633 -68.46678711 46.34629883 -69.21850586 46.90942383 C-73.97649566 50.77415117 -77.21356191 55.13018492 -80.46459961 60.31176758 C-80.9737793 60.95243164 -81.48295898 61.5930957 -82.00756836 62.25317383 C-82.99756836 62.25317383 -83.98756836 62.25317383 -85.00756836 62.25317383 C-84.49991027 56.34587966 -83.26741284 51.63707042 -80.82006836 46.25317383 C-80.50980713 45.55619385 -80.1995459 44.85921387 -79.87988281 44.14111328 C-77.50848933 38.97600681 -74.69733753 34.5826553 -71.00756836 30.25317383 C-70.34756836 29.26317383 -69.68756836 28.27317383 -69.00756836 27.25317383 C-68.34756836 27.25317383 -67.68756836 27.25317383 -67.00756836 27.25317383 C-66.75491211 26.67051758 -66.50225586 26.08786133 -66.24194336 25.48754883 C-60.48162055 15.06063538 -44.9785099 7.60024074 -34.00756836 4.25317383 C-29.53649713 3.07783006 -25.09945905 2.22366114 -20.50756836 1.69067383 C-7.03048766 0.00603874 -7.03048766 0.00603874 0 0 Z " fill="#CFB071" transform="translate(162.007568359375,10.746826171875)"/>
<path d="M0 0 C1.06356811 21.34038745 1.15691195 42.65453814 1.13037109 64.01611328 C1.12456502 68.75822127 1.12803839 73.50027399 1.13394356 78.24238014 C1.13753845 81.92077054 1.13641745 85.59914752 1.13381577 89.2775383 C1.13314909 91.02951438 1.13396585 92.78149168 1.13629532 94.53346634 C1.13881571 96.95154388 1.13499512 99.36952722 1.12939453 101.78759766 C1.13141876 102.50834473 1.13344299 103.2290918 1.13552856 103.97167969 C1.11428623 108.88571377 1.11428623 108.88571377 0 110 C-1.8203125 110.1328125 -1.8203125 110.1328125 -4.125 110.125 C-5.24261719 110.12886719 -5.24261719 110.12886719 -6.3828125 110.1328125 C-9.62704118 109.96818 -12.7911749 109.4942689 -16 109 C-16.97960349 94.3234406 -17.11707333 79.7062117 -17 65 C-18.21200073 65.44533081 -18.21200073 65.44533081 -19.44848633 65.8996582 C-28.02842713 69.0087988 -35.7940078 70.09861438 -44.875 69.9375 C-53.57808874 69.86820789 -63.88006288 70.44608485 -71 76 C-73.58118354 79.51979573 -74.03810479 81.26330746 -73.8125 85.625 C-72.96646247 89.59401188 -72.96646247 89.59401188 -71 93 C-68.2552429 94.22148021 -68.2552429 94.22148021 -65 95 C-63.3603125 95.556875 -63.3603125 95.556875 -61.6875 96.125 C-54.13284782 97.91762933 -47.43132097 96.96763108 -40 95 C-39.75084061 96.76813112 -39.52633368 98.53974982 -39.3125 100.3125 C-39.18488281 101.29863281 -39.05726563 102.28476562 -38.92578125 103.30078125 C-39 106 -39 106 -40.23046875 107.79296875 C-46.59490096 112.13427019 -57.69366864 110.59849736 -65 110 C-74.58912077 107.92522387 -82.38447999 103.07643908 -88 95 C-91.40128845 89.07239223 -91.51210779 83.58396933 -90 77 C-87.88689361 70.3365111 -83.80775095 65.7815823 -78 62 C-68.28550328 57.84492505 -58.62543706 57.27804277 -48.25 56.9375 C-31.88385334 56.80130515 -31.88385334 56.80130515 -18 49 C-16.57337781 46.14675563 -16.68966132 44.16545451 -17 41 C-20.38428249 35.31440542 -25.53535541 32.92424172 -31.5 30.6875 C-42.52525269 28.34170156 -54.16931057 30.83788764 -64 36 C-69.89411838 39.92622796 -73.6585296 44.8150668 -77 51 C-81.97306516 50.50269348 -85.63799813 49.44697666 -90 47 C-89.67742499 40.87107477 -86.63898791 35.80672284 -83 31 C-82.01 30.67 -81.02 30.34 -80 30 C-80 29.34 -80 28.68 -80 28 C-79.34 28 -78.68 28 -78 28 C-78 27.34 -78 26.68 -78 26 C-67.67834472 18.31366096 -56.63917616 15.22218449 -44 14 C-43.195625 13.91492188 -42.39125 13.82984375 -41.5625 13.7421875 C-33.04126251 13.27226631 -24.75854618 16.81037546 -17 20 C-17.061875 18.824375 -17.12375 17.64875 -17.1875 16.4375 C-17.17190793 12.03273945 -16.16774018 8.88698239 -14 5 C-9.18161473 0.53417951 -6.51505751 -0.12064921 0 0 Z " fill="#08529F" transform="translate(492,174)"/>
<path d="M0 0 C-0.00523682 1.24797363 -0.01047363 2.49594727 -0.01586914 3.78173828 C-0.03432416 8.52701058 -0.04557577 13.27227991 -0.05493164 18.01757812 C-0.05988129 20.04981016 -0.06664269 22.08203879 -0.07543945 24.11425781 C-0.12179292 35.11911513 -0.0642965 46.11794135 0.31640625 57.1171875 C0.34975319 58.47712326 0.34975319 58.47712326 0.3837738 59.86453247 C0.62158804 65.60655774 1.35459094 70.34815442 5.60546875 74.609375 C6.12753906 74.98578125 6.64960937 75.3621875 7.1875 75.75 C8.115625 76.4925 9.04375 77.235 10 78 C10 78.66 10 79.32 10 80 C11.66666667 80.33333333 13.33333333 80.66666667 15 81 C15.86238281 81.17660156 16.72476563 81.35320312 17.61328125 81.53515625 C28.92672516 83.74545282 39.65768222 83.73146742 50.0625 78 C53.3404436 75.80159174 53.3404436 75.80159174 56 73 C56.50644626 70.57908113 56.50644626 70.57908113 56.51171875 67.8125 C56.54700684 66.73750244 56.58229492 65.66250488 56.61865234 64.55493164 C56.64137207 63.3818042 56.6640918 62.20867676 56.6875 61 C56.72311035 59.78497803 56.7587207 58.56995605 56.79541016 57.31811523 C56.98074762 50.05480408 57.00789298 42.80034431 56.94921875 35.53515625 C56.94405746 34.74587738 56.93889618 33.95659851 56.93357849 33.1434021 C56.90684469 29.25045152 56.86282688 25.3591236 56.7878418 21.46679688 C56.77213134 20.0312553 56.75689067 18.59570849 56.7421875 17.16015625 C56.7201123 15.89824463 56.69803711 14.63633301 56.67529297 13.33618164 C57.13826787 8.57937557 58.87915631 6.08970914 62.25 2.8125 C65.44405966 0.70732431 68.26470935 -0.224751 72 -1 C72.99 -0.505 72.99 -0.505 74 0 C74 37.62 74 75.24 74 114 C68.72 114 63.44 114 58 114 C57.31445965 110.57229824 56.87675245 108.14542877 56.90234375 104.79296875 C56.90717773 103.66665039 56.90717773 103.66665039 56.91210938 102.51757812 C56.92467773 101.36418945 56.92467773 101.36418945 56.9375 100.1875 C56.94201172 99.39923828 56.94652344 98.61097656 56.95117188 97.79882812 C56.96288688 95.86585239 56.98082002 93.93291607 57 92 C56.28199219 92.29648437 55.56398438 92.59296875 54.82421875 92.8984375 C37.69513181 99.57949216 20.06574293 98.31961476 3.09765625 91.90234375 C-3.8449415 88.7466175 -10.97300607 84.38545646 -14.26286316 77.26776123 C-17.01994371 68.52813606 -17.54571017 60.44054312 -17.42578125 51.328125 C-17.42084349 49.869369 -17.41755366 48.41060659 -17.41581726 46.95184326 C-17.40825115 43.92634151 -17.3879024 40.90132551 -17.35668945 37.87597656 C-17.31669115 33.99213092 -17.29900437 30.10859588 -17.28938007 26.22456741 C-17.27944692 22.50904458 -17.25957855 18.79359754 -17.23828125 15.078125 C-17.2348855 14.3696769 -17.23148975 13.66122879 -17.2279911 12.93131256 C-17.21647672 10.94277585 -17.19695177 8.95429029 -17.17700195 6.96582031 C-17.16715775 5.83476868 -17.15731354 4.70371704 -17.14717102 3.53839111 C-17 1 -17 1 -16 0 C-4.23529412 -2.11764706 -4.23529412 -2.11764706 0 0 Z " fill="#05509E" transform="translate(526,188)"/>
<path d="M0 0 C2.44480421 2.44480421 1.23393411 8.78305089 1.25 12.0625 C1.270625 13.08794922 1.29125 14.11339844 1.3125 15.16992188 C1.34498962 21.51758155 0.63968291 26.2135372 -2 32 C-2.66 32 -3.32 32 -4 32 C-4 32.99 -4 33.98 -4 35 C-4.66 35 -5.32 35 -6 35 C-6 35.66 -6 36.32 -6 37 C-6.66 37 -7.32 37 -8 37 C-8.33 37.99 -8.66 38.98 -9 40 C-10.6454378 41.68762851 -12.31288577 43.3540349 -14 45 C-17.08284411 49.62426616 -16.32861086 54.31097396 -16.3125 59.75 C-16.32861328 60.8225 -16.34472656 61.895 -16.36132812 63 C-16.36550141 69.77742079 -16.20984833 75.44885134 -11.45703125 80.70703125 C-4.66598428 85.27203432 1.3934192 86.60929795 9.53515625 85.54296875 C14.17854839 84.5200979 18.31812531 82.82511844 21.57373047 79.29223633 C23.37392467 76.39904506 23.42690302 74.49055484 23.51171875 71.09375 C23.56440918 69.29055298 23.56440918 69.29055298 23.61816406 67.45092773 C23.65248535 65.49521851 23.65248535 65.49521851 23.6875 63.5 C23.72392014 62.13677264 23.7613754 60.77357259 23.79980469 59.41040039 C23.99739911 51.65372892 23.99821695 43.9102587 23.87890625 36.15234375 C23.85899429 34.51692874 23.83921784 32.88151208 23.81958008 31.24609375 C23.78048967 28.08180697 23.70598333 24.92089498 23.61206055 21.7578125 C23.58921689 20.29558991 23.56743614 18.83335021 23.546875 17.37109375 C23.51432617 16.09161865 23.48177734 14.81214355 23.44824219 13.49389648 C24.18422834 8.83341071 25.68925138 7.31227067 29 4 C33.23832081 1.29468885 36.05206045 0.87612947 41 1 C41.04641502 10.78825396 41.08191574 20.57648158 41.10362434 30.36482334 C41.11404529 34.91032878 41.12817359 39.45575871 41.15087891 44.0012207 C41.17266759 48.39083024 41.18458133 52.78036732 41.18975449 57.17002678 C41.19343944 58.84169594 41.20063519 60.51336129 41.21146011 62.18499947 C41.22605523 64.53300561 41.22797461 66.88071529 41.22705078 69.22875977 C41.23424133 69.91424896 41.24143188 70.59973816 41.24884033 71.30599976 C41.21781038 78.63196674 39.64521227 84.11502426 34.68359375 89.43359375 C25.63500774 97.85234779 13.58134792 98.2910702 1.875 98.4375 C0.86187744 98.45973633 -0.15124512 98.48197266 -1.19506836 98.50488281 C-10.59011617 98.4773605 -18.38829084 96.18573119 -25.4375 89.75 C-26.64212891 88.69039062 -26.64212891 88.69039062 -27.87109375 87.609375 C-33.77450242 80.3736374 -33.60047364 72.01117522 -33.81835938 63.10913086 C-33.87498869 60.93793351 -33.96348471 58.76959823 -34.0546875 56.59960938 C-34.09827486 55.20057935 -34.14000465 53.80148996 -34.1796875 52.40234375 C-34.21819824 51.14929443 -34.25670898 49.89624512 -34.29638672 48.60522461 C-33.90392166 43.83131064 -32.74235406 39.97851907 -29.49780273 36.29418945 C-28.98161377 35.90448975 -28.4654248 35.51479004 -27.93359375 35.11328125 C-27.08220825 34.42794312 -27.08220825 34.42794312 -26.21362305 33.72875977 C-25.62750244 33.26139404 -25.04138184 32.79402832 -24.4375 32.3125 C-20.14703342 28.61184848 -17.20055565 25.86454602 -16.1875 20.0625 C-16.05123863 18.04529737 -15.99238977 16.02178527 -16 14 C-15.97292969 12.79730469 -15.94585938 11.59460938 -15.91796875 10.35546875 C-15.88073748 7.23142672 -15.90934511 4.12255746 -16 1 C-10.64048249 0.31942635 -5.40588195 -0.22524508 0 0 Z " fill="#05509E" transform="translate(651,187)"/>
<path d="M0 0 C0.99 0 1.98 0 3 0 C4.0625 1.8125 4.0625 1.8125 5 4 C4.67 4.99 4.34 5.98 4 7 C4 6.34 4 5.68 4 5 C3.34 5 2.68 5 2 5 C1.67 5.99 1.34 6.98 1 8 C0.67 5.36 0.34 2.72 0 0 Z " fill="#04459A" transform="translate(342,140)"/>
</svg>
